<svg width="43" height="43" viewBox="0 0 43 43" fill="none" xmlns="http://www.w3.org/2000/svg">
<path fill-rule="evenodd" clip-rule="evenodd" d="M2.6875 39.4166V3.58325H4.47917V38.5208H39.4167V40.3124H3.58333C3.08858 40.3124 2.6875 39.9113 2.6875 39.4166Z" fill="black"/>
<path fill-rule="evenodd" clip-rule="evenodd" d="M11.6458 20.6042C10.6563 20.6042 9.85417 21.4063 9.85417 22.3958C9.85417 23.3853 10.6563 24.1875 11.6458 24.1875C12.6353 24.1875 13.4375 23.3853 13.4375 22.3958C13.4375 21.4063 12.6353 20.6042 11.6458 20.6042ZM8.0625 22.3958C8.0625 20.4168 9.66681 18.8125 11.6458 18.8125C13.6249 18.8125 15.2292 20.4168 15.2292 22.3958C15.2292 24.3749 13.6249 25.9792 11.6458 25.9792C9.66681 25.9792 8.0625 24.3749 8.0625 22.3958Z" fill="black"/>
<path fill-rule="evenodd" clip-rule="evenodd" d="M24.1876 27.7707C23.1981 27.7707 22.3959 28.5728 22.3959 29.5623C22.3959 30.5518 23.1981 31.354 24.1876 31.354C25.1771 31.354 25.9792 30.5518 25.9792 29.5623C25.9792 28.5728 25.1771 27.7707 24.1876 27.7707ZM20.6042 29.5623C20.6042 27.5833 22.2086 25.979 24.1876 25.979C26.1666 25.979 27.7709 27.5833 27.7709 29.5623C27.7709 31.5414 26.1666 33.1457 24.1876 33.1457C22.2086 33.1457 20.6042 31.5414 20.6042 29.5623Z" fill="black"/>
<path fill-rule="evenodd" clip-rule="evenodd" d="M36.7291 13.4374C35.7396 13.4374 34.9374 14.2396 34.9374 15.2291C34.9374 16.2186 35.7396 17.0208 36.7291 17.0208C37.7186 17.0208 38.5208 16.2186 38.5208 15.2291C38.5208 14.2396 37.7186 13.4374 36.7291 13.4374ZM33.1458 15.2291C33.1458 13.2501 34.7501 11.6458 36.7291 11.6458C38.7081 11.6458 40.3124 13.2501 40.3124 15.2291C40.3124 17.2081 38.7081 18.8124 36.7291 18.8124C34.7501 18.8124 33.1458 17.2081 33.1458 15.2291Z" fill="black"/>
<path fill-rule="evenodd" clip-rule="evenodd" d="M21.0649 29.4497L13.0024 24.9705L13.8726 23.4043L21.9351 27.8835L21.0649 29.4497Z" fill="black"/>
<path fill-rule="evenodd" clip-rule="evenodd" d="M36.5435 17.567L27.5852 29.2128L26.165 28.1204L35.1234 16.4746L36.5435 17.567Z" fill="black"/>
</svg>
