<svg width="43" height="43" viewBox="0 0 43 43" fill="none" xmlns="http://www.w3.org/2000/svg">
<path fill-rule="evenodd" clip-rule="evenodd" d="M21.5 4.47917C12.0997 4.47917 4.47917 12.0997 4.47917 21.5C4.47917 30.9003 12.0997 38.5208 21.5 38.5208C30.9003 38.5208 38.5208 30.9003 38.5208 21.5C38.5208 12.0997 30.9003 4.47917 21.5 4.47917ZM2.6875 21.5C2.6875 11.1101 11.1101 2.6875 21.5 2.6875C31.8899 2.6875 40.3125 11.1101 40.3125 21.5C40.3125 31.8899 31.8899 40.3125 21.5 40.3125C11.1101 40.3125 2.6875 31.8899 2.6875 21.5Z" fill="black"/>
<path fill-rule="evenodd" clip-rule="evenodd" d="M21.9543 20.728C22.2279 20.889 22.3958 21.1827 22.3958 21.5001V33.1459H20.6042V23.0226L13.8726 26.7623L13.0024 25.1961L21.0649 20.717C21.3424 20.5628 21.6807 20.567 21.9543 20.728Z" fill="black"/>
</svg>
