<svg width="43" height="43" viewBox="0 0 43 43" fill="none" xmlns="http://www.w3.org/2000/svg">
<path fill-rule="evenodd" clip-rule="evenodd" d="M21.1324 3.66228C21.3662 3.55707 21.6338 3.55707 21.8676 3.66228L39.7843 11.7248C40.1058 11.8694 40.3125 12.1892 40.3125 12.5417C40.3125 12.8942 40.1058 13.214 39.7843 13.3586L21.8676 21.4211C21.6338 21.5263 21.3662 21.5263 21.1324 21.4211L3.21571 13.3586C2.89424 13.214 2.6875 12.8942 2.6875 12.5417C2.6875 12.1892 2.89424 11.8694 3.21571 11.7248L21.1324 3.66228ZM5.76635 12.5417L21.5 19.6218L37.2336 12.5417L21.5 5.46156L5.76635 12.5417Z" fill="black"/>
<path fill-rule="evenodd" clip-rule="evenodd" d="M3.21571 20.683L13.1694 16.2039L13.9047 17.8377L5.76635 21.5L21.5 28.5801L37.2336 21.5L29.0953 17.8377L29.8306 16.2039L39.7843 20.683C40.1058 20.8277 40.3125 21.1474 40.3125 21.5C40.3125 21.8525 40.1058 22.1722 39.7843 22.3169L21.8676 30.3794C21.6338 30.4846 21.3662 30.4846 21.1324 30.3794L3.21571 22.3169C2.89424 22.1722 2.6875 21.8525 2.6875 21.5C2.6875 21.1474 2.89424 20.8277 3.21571 20.683Z" fill="black"/>
<path fill-rule="evenodd" clip-rule="evenodd" d="M3.21571 29.6414L13.1694 25.1622L13.9047 26.7961L5.76635 30.4583L21.5 37.5385L37.2336 30.4583L29.0953 26.7961L29.8306 25.1622L39.7843 29.6414C40.1058 29.7861 40.3125 30.1058 40.3125 30.4583C40.3125 30.8108 40.1058 31.1306 39.7843 31.2753L21.8676 39.3378C21.6338 39.443 21.3662 39.443 21.1324 39.3378L3.21571 31.2753C2.89424 31.1306 2.6875 30.8108 2.6875 30.4583C2.6875 30.1058 2.89424 29.7861 3.21571 29.6414Z" fill="black"/>
</svg>
