<svg width="43" height="43" viewBox="0 0 43 43" fill="none" xmlns="http://www.w3.org/2000/svg">
<path fill-rule="evenodd" clip-rule="evenodd" d="M21.5001 26.8749C20.5106 26.8749 19.7084 27.6771 19.7084 28.6666C19.7084 29.6561 20.5106 30.4583 21.5001 30.4583C22.4896 30.4583 23.2917 29.6561 23.2917 28.6666C23.2917 27.6771 22.4896 26.8749 21.5001 26.8749ZM17.9167 28.6666C17.9167 26.6876 19.5211 25.0833 21.5001 25.0833C23.4791 25.0833 25.0834 26.6876 25.0834 28.6666C25.0834 30.6456 23.4791 32.2499 21.5001 32.2499C19.5211 32.2499 17.9167 30.6456 17.9167 28.6666Z" fill="black"/>
<path fill-rule="evenodd" clip-rule="evenodd" d="M8.0625 8.95829C6.08348 8.95829 4.47917 10.5626 4.47917 12.5416C4.47917 12.9566 4.68622 13.6752 5.10337 14.6247C5.50436 15.5374 6.04598 16.5477 6.59781 17.4989C7.12549 18.4086 7.65435 19.2503 8.0625 19.8809C8.47064 19.2503 8.99951 18.4086 9.52719 17.4989C10.079 16.5477 10.6206 15.5374 11.0216 14.6247C11.4388 13.6752 11.6458 12.9566 11.6458 12.5416C11.6458 10.5626 10.0415 8.95829 8.0625 8.95829ZM8.0625 21.5C7.32541 22.0091 7.32535 22.009 7.32527 22.0089L7.32145 22.0033L7.31111 21.9883L7.27212 21.9313C7.23827 21.8817 7.18904 21.8092 7.12664 21.7164C7.00185 21.5308 6.82422 21.2638 6.61134 20.936C6.18606 20.2812 5.61769 19.38 5.04802 18.398C4.48006 17.4189 3.90189 16.3442 3.46303 15.3453C3.04034 14.3832 2.6875 13.3635 2.6875 12.5416C2.6875 9.5731 5.09397 7.16663 8.0625 7.16663C11.031 7.16663 13.4375 9.5731 13.4375 12.5416C13.4375 13.3635 13.0847 14.3832 12.662 15.3453C12.2231 16.3442 11.6449 17.4189 11.077 18.398C10.5073 19.38 9.93894 20.2812 9.51366 20.936C9.30078 21.2638 9.12315 21.5308 8.99836 21.7164C8.93596 21.8092 8.88673 21.8817 8.85288 21.9313L8.81389 21.9883L8.80355 22.0033L8.79973 22.0089C8.79965 22.009 8.79959 22.0091 8.0625 21.5ZM8.0625 21.5L8.79973 22.0089C8.63246 22.251 8.3568 22.3958 8.0625 22.3958C7.7682 22.3958 7.49254 22.251 7.32527 22.0089L8.0625 21.5Z" fill="black"/>
<path fill-rule="evenodd" clip-rule="evenodd" d="M21.5 8.95829C19.521 8.95829 17.9167 10.5626 17.9167 12.5416C17.9167 12.9566 18.1237 13.6752 18.5409 14.6247C18.9419 15.5374 19.4835 16.5477 20.0353 17.4989C20.563 18.4086 21.0919 19.2503 21.5 19.8809C21.9081 19.2503 22.437 18.4086 22.9647 17.4989C23.5165 16.5477 24.0581 15.5374 24.4591 14.6247C24.8763 13.6752 25.0833 12.9566 25.0833 12.5416C25.0833 10.5626 23.479 8.95829 21.5 8.95829ZM21.5 21.5C20.7629 22.0091 20.7629 22.009 20.7628 22.0089L20.7589 22.0033L20.7486 21.9883L20.7096 21.9313C20.6758 21.8817 20.6265 21.8092 20.5641 21.7164C20.4394 21.5308 20.2617 21.2638 20.0488 20.936C19.6236 20.2812 19.0552 19.38 18.4855 18.398C17.9176 17.4189 17.3394 16.3442 16.9005 15.3453C16.4778 14.3832 16.125 13.3635 16.125 12.5416C16.125 9.5731 18.5315 7.16663 21.5 7.16663C24.4685 7.16663 26.875 9.5731 26.875 12.5416C26.875 13.3635 26.5222 14.3832 26.0995 15.3453C25.6606 16.3442 25.0824 17.4189 24.5145 18.398C23.9448 19.38 23.3764 20.2812 22.9512 20.936C22.7383 21.2638 22.5606 21.5308 22.4359 21.7164C22.3735 21.8092 22.3242 21.8817 22.2904 21.9313L22.2514 21.9883L22.2411 22.0033L22.2372 22.0089C22.2371 22.009 22.2371 22.0091 21.5 21.5ZM21.5 21.5L22.2372 22.0089C22.07 22.251 21.7943 22.3958 21.5 22.3958C21.2057 22.3958 20.93 22.251 20.7628 22.0089L21.5 21.5Z" fill="black"/>
<path fill-rule="evenodd" clip-rule="evenodd" d="M34.9375 8.95829C32.9585 8.95829 31.3542 10.5626 31.3542 12.5416C31.3542 12.9566 31.5612 13.6752 31.9784 14.6247C32.3794 15.5374 32.921 16.5477 33.4728 17.4989C34.0005 18.4086 34.5294 19.2503 34.9375 19.8809C35.3456 19.2503 35.8745 18.4086 36.4022 17.4989C36.954 16.5477 37.4956 15.5374 37.8966 14.6247C38.3138 13.6752 38.5208 12.9566 38.5208 12.5416C38.5208 10.5626 36.9165 8.95829 34.9375 8.95829ZM34.9375 21.5C34.2004 22.0091 34.2004 22.009 34.2003 22.0089L34.1964 22.0033L34.1861 21.9883L34.1471 21.9313C34.1133 21.8817 34.064 21.8092 34.0016 21.7164C33.8769 21.5308 33.6992 21.2638 33.4863 20.936C33.0611 20.2812 32.4927 19.38 31.923 18.398C31.3551 17.4189 30.7769 16.3442 30.338 15.3453C29.9153 14.3832 29.5625 13.3635 29.5625 12.5416C29.5625 9.5731 31.969 7.16663 34.9375 7.16663C37.906 7.16663 40.3125 9.5731 40.3125 12.5416C40.3125 13.3635 39.9597 14.3832 39.537 15.3453C39.0981 16.3442 38.5199 17.4189 37.952 18.398C37.3823 19.38 36.8139 20.2812 36.3887 20.936C36.1758 21.2638 35.9981 21.5308 35.8734 21.7164C35.811 21.8092 35.7617 21.8817 35.7279 21.9313L35.6889 21.9883L35.6786 22.0033L35.6747 22.0089C35.6746 22.009 35.6746 22.0091 34.9375 21.5ZM34.9375 21.5L35.6747 22.0089C35.5075 22.251 35.2318 22.3958 34.9375 22.3958C34.6432 22.3958 34.3675 22.251 34.2003 22.0089L34.9375 21.5Z" fill="black"/>
<path fill-rule="evenodd" clip-rule="evenodd" d="M34.9376 26.8749C33.9481 26.8749 33.1459 27.6771 33.1459 28.6666C33.1459 29.6561 33.9481 30.4583 34.9376 30.4583C35.9271 30.4583 36.7292 29.6561 36.7292 28.6666C36.7292 27.6771 35.9271 26.8749 34.9376 26.8749ZM31.3542 28.6666C31.3542 26.6876 32.9586 25.0833 34.9376 25.0833C36.9166 25.0833 38.5209 26.6876 38.5209 28.6666C38.5209 30.6456 36.9166 32.2499 34.9376 32.2499C32.9586 32.2499 31.3542 30.6456 31.3542 28.6666Z" fill="black"/>
<path fill-rule="evenodd" clip-rule="evenodd" d="M8.06258 26.8749C7.07307 26.8749 6.27091 27.6771 6.27091 28.6666C6.27091 29.6561 7.07307 30.4583 8.06258 30.4583C9.05209 30.4583 9.85425 29.6561 9.85425 28.6666C9.85425 27.6771 9.05209 26.8749 8.06258 26.8749ZM4.47925 28.6666C4.47925 26.6876 6.08356 25.0833 8.06258 25.0833C10.0416 25.0833 11.6459 26.6876 11.6459 28.6666C11.6459 30.6456 10.0416 32.2499 8.06258 32.2499C6.08356 32.2499 4.47925 30.6456 4.47925 28.6666Z" fill="black"/>
<path fill-rule="evenodd" clip-rule="evenodd" d="M24.1875 27.7708H32.25V29.5624H24.1875V27.7708Z" fill="black"/>
<path fill-rule="evenodd" clip-rule="evenodd" d="M10.75 27.7708H19.7083V29.5624H10.75V27.7708Z" fill="black"/>
<path fill-rule="evenodd" clip-rule="evenodd" d="M2.6875 27.7708H5.375V29.5624H2.6875V27.7708Z" fill="black"/>
<path fill-rule="evenodd" clip-rule="evenodd" d="M40.3125 29.5624H37.625V27.7708H40.3125V29.5624Z" fill="black"/>
</svg>
