<svg width="88" height="99" viewBox="0 0 88 99" fill="none" xmlns="http://www.w3.org/2000/svg">
<rect opacity="0.7" y="29.4561" width="69.064" height="69.064" rx="28.2805" fill="#4796FC"/>
<path opacity="0.7" d="M18.936 50.3728C18.936 34.7539 31.5977 22.0923 47.2166 22.0923H59.7195C75.3385 22.0923 88.0001 34.7539 88.0001 50.3728V62.8758C88.0001 78.4947 75.3384 91.1563 59.7195 91.1563H47.2166C31.5977 91.1563 18.936 78.4947 18.936 62.8758V50.3728Z" fill="#899DA2"/>
<rect x="5.51968" y="1.31167" width="76.3957" height="76.3957" rx="33.4043" fill="white" stroke="black" stroke-width="2.62334"/>
<path fill-rule="evenodd" clip-rule="evenodd" d="M26.2614 35.6095C26.2614 35.1534 26.6311 34.7837 27.0872 34.7837H60.1202C60.5763 34.7837 60.946 35.1534 60.946 35.6095V52.126C60.946 52.5821 60.5763 52.9519 60.1202 52.9519H27.0872C26.6311 52.9519 26.2614 52.5821 26.2614 52.126V35.6095ZM27.913 36.4353V51.3002H59.2944V36.4353H27.913Z" fill="black"/>
<path fill-rule="evenodd" clip-rule="evenodd" d="M32.8679 47.1711V40.5645H34.5196V47.1711H32.8679Z" fill="black"/>
<path fill-rule="evenodd" clip-rule="evenodd" d="M39.4746 47.1711V40.5645H41.1263V47.1711H39.4746Z" fill="black"/>
<path fill-rule="evenodd" clip-rule="evenodd" d="M46.0812 47.1711V40.5645H47.7328V47.1711H46.0812Z" fill="black"/>
<path fill-rule="evenodd" clip-rule="evenodd" d="M52.6877 47.1711V40.5645H54.3394V47.1711H52.6877Z" fill="black"/>
<path fill-rule="evenodd" clip-rule="evenodd" d="M43.1658 26.6509C43.4336 26.4835 43.7734 26.4835 44.0412 26.6509L57.2544 34.9092L56.379 36.3098L43.6035 28.3251L30.8279 36.3098L29.9526 34.9092L43.1658 26.6509Z" fill="black"/>
<path fill-rule="evenodd" clip-rule="evenodd" d="M44.4295 22.3965V27.3514H42.7778V22.3965H44.4295Z" fill="black"/>
</svg>
