<svg width="80" height="91" viewBox="0 0 80 91" fill="none" xmlns="http://www.w3.org/2000/svg">
<rect opacity="0.7" y="27.187" width="62.7854" height="63.7452" rx="25.7095" fill="#FCC977"/>
<path opacity="0.7" d="M17.2146 46.1001C17.2146 31.9012 28.7252 20.3906 42.9241 20.3906H54.2905C68.4895 20.3906 80 31.9012 80 46.1002V58.4263C80 72.6253 68.4895 84.1358 54.2905 84.1358H42.9241C28.7252 84.1358 17.2146 72.6253 17.2146 58.4263V46.1001Z" fill="#899DA2"/>
<rect x="5.0178" y="1.19243" width="69.4505" height="70.5487" rx="30.3675" fill="white" stroke="black" stroke-width="2.38485"/>
<path fill-rule="evenodd" clip-rule="evenodd" d="M32.102 42.6846C31.2728 42.6846 30.6005 43.3671 30.6005 44.2091C30.6005 45.051 31.2728 45.7335 32.102 45.7335C32.9313 45.7335 33.6035 45.051 33.6035 44.2091C33.6035 43.3671 32.9313 42.6846 32.102 42.6846ZM29.099 44.2091C29.099 42.5252 30.4435 41.1602 32.102 41.1602C33.7605 41.1602 35.105 42.5252 35.105 44.2091C35.105 45.8929 33.7605 47.258 32.102 47.258C30.4435 47.258 29.099 45.8929 29.099 44.2091Z" fill="black"/>
<path fill-rule="evenodd" clip-rule="evenodd" d="M48.6185 42.6846C47.7893 42.6846 47.117 43.3671 47.117 44.2091C47.117 45.051 47.7893 45.7335 48.6185 45.7335C49.4478 45.7335 50.12 45.051 50.12 44.2091C50.12 43.3671 49.4478 42.6846 48.6185 42.6846ZM45.6155 44.2091C45.6155 42.5252 46.96 41.1602 48.6185 41.1602C50.2771 41.1602 51.6215 42.5252 51.6215 44.2091C51.6215 45.8929 50.2771 47.258 48.6185 47.258C46.96 47.258 45.6155 45.8929 45.6155 44.2091Z" fill="black"/>
<path fill-rule="evenodd" clip-rule="evenodd" d="M42.6125 26.6778C42.6125 26.2568 42.9487 25.9155 43.3633 25.9155H49.3693C53.1009 25.9155 56.126 28.9869 56.126 32.7756V42.6845C56.126 43.9474 55.1177 44.9712 53.8738 44.9712H50.8708V43.4467H53.8738C54.2884 43.4467 54.6245 43.1055 54.6245 42.6845V32.7756C54.6245 29.8288 52.2717 27.44 49.3693 27.44H44.114V38.1111C44.114 38.5321 43.7779 38.8734 43.3633 38.8734H26.096V43.4467H29.8498V44.9712H25.3453C24.9307 44.9712 24.5945 44.6299 24.5945 44.209V38.1111C24.5945 37.6902 24.9307 37.3489 25.3453 37.3489H42.6125V26.6778ZM34.3543 43.4467H46.3663V44.9712H34.3543V43.4467Z" fill="black"/>
<path fill-rule="evenodd" clip-rule="evenodd" d="M24.5945 26.6778C24.5945 26.2568 24.9307 25.9155 25.3453 25.9155H38.8588C39.2734 25.9155 39.6095 26.2568 39.6095 26.6778V34.3C39.6095 34.721 39.2734 35.0622 38.8588 35.0622H25.3453C24.9307 35.0622 24.5945 34.721 24.5945 34.3V26.6778ZM26.096 27.44V33.5378H38.108V27.44H26.096Z" fill="black"/>
<path fill-rule="evenodd" clip-rule="evenodd" d="M47.8678 25.9155C48.2824 25.9155 48.6185 26.2568 48.6185 26.6778V32.7756H55.3753C55.7899 32.7756 56.126 33.1168 56.126 33.5378C56.126 33.9588 55.7899 34.3 55.3753 34.3H47.8678C47.4532 34.3 47.117 33.9588 47.117 33.5378V26.6778C47.117 26.2568 47.4532 25.9155 47.8678 25.9155Z" fill="black"/>
</svg>
