<svg width="24" height="24" viewBox="0 0 24 24" fill="none" xmlns="http://www.w3.org/2000/svg">
<path fill-rule="evenodd" clip-rule="evenodd" d="M1.5 9C1.5 8.17157 2.17157 7.5 3 7.5H16C16.8284 7.5 17.5 8.17157 17.5 9V21C17.5 21.8284 16.8284 22.5 16 22.5H3C2.17157 22.5 1.5 21.8284 1.5 21V9ZM3 8.5C2.72386 8.5 2.5 8.72386 2.5 9V21C2.5 21.2761 2.72386 21.5 3 21.5H16C16.2761 21.5 16.5 21.2761 16.5 21V9C16.5 8.72386 16.2761 8.5 16 8.5H3Z" fill="black"/>
<path fill-rule="evenodd" clip-rule="evenodd" d="M6.5 4C6.5 3.17157 7.17157 2.5 8 2.5H21C21.8284 2.5 22.5 3.17157 22.5 4V16C22.5 16.8284 21.8284 17.5 21 17.5H17C16.7239 17.5 16.5 17.2761 16.5 17V9C16.5 8.72386 16.2761 8.5 16 8.5H7C6.72386 8.5 6.5 8.27614 6.5 8V4ZM8 3.5C7.72386 3.5 7.5 3.72386 7.5 4V7.5H16C16.8284 7.5 17.5 8.17157 17.5 9V16.5H21C21.2761 16.5 21.5 16.2761 21.5 16V4C21.5 3.72386 21.2761 3.5 21 3.5H8Z" fill="black"/>
<path fill-rule="evenodd" clip-rule="evenodd" d="M1.5 9C1.5 8.17157 2.17157 7.5 3 7.5H16C16.8284 7.5 17.5 8.17157 17.5 9V13C17.5 13.2761 17.2761 13.5 17 13.5H2C1.72386 13.5 1.5 13.2761 1.5 13V9ZM3 8.5C2.72386 8.5 2.5 8.72386 2.5 9V12.5H16.5V9C16.5 8.72386 16.2761 8.5 16 8.5H3Z" fill="black"/>
<path fill-rule="evenodd" clip-rule="evenodd" d="M6.5 4C6.5 3.17157 7.17157 2.5 8 2.5H21C21.8284 2.5 22.5 3.17157 22.5 4V8C22.5 8.27614 22.2761 8.5 22 8.5H7C6.72386 8.5 6.5 8.27614 6.5 8V4ZM8 3.5C7.72386 3.5 7.5 3.72386 7.5 4V7.5H21.5V4C21.5 3.72386 21.2761 3.5 21 3.5H8Z" fill="black"/>
</svg>
