<svg width="24" height="24" viewBox="0 0 24 24" fill="none" xmlns="http://www.w3.org/2000/svg">
<path fill-rule="evenodd" clip-rule="evenodd" d="M11.9996 9.59351C11.0484 9.59351 10.2773 10.3646 10.2773 11.3157C10.2773 12.2669 11.0484 13.038 11.9996 13.038C12.9507 13.038 13.7218 12.2669 13.7218 11.3157C13.7218 10.3646 12.9507 9.59351 11.9996 9.59351ZM9.27734 11.3157C9.27734 9.81229 10.4961 8.59351 11.9996 8.59351C13.503 8.59351 14.7218 9.81229 14.7218 11.3157C14.7218 12.8192 13.503 14.038 11.9996 14.038C10.4961 14.038 9.27734 12.8192 9.27734 11.3157Z" fill="black"/>
<path fill-rule="evenodd" clip-rule="evenodd" d="M12.0001 15.7715C10.5459 15.7715 9.24248 16.2131 8.29703 16.9111L7.70312 16.1065C8.83393 15.2718 10.3494 14.7715 12.0001 14.7715C13.6508 14.7715 15.1662 15.2718 16.297 16.1065L15.7031 16.9111C14.7577 16.2131 13.4542 15.7715 12.0001 15.7715Z" fill="black"/>
<path fill-rule="evenodd" clip-rule="evenodd" d="M12 4.97803C7.58172 4.97803 4 8.55975 4 12.978C4 17.3963 7.58172 20.978 12 20.978C16.4183 20.978 20 17.3963 20 12.978C20 9.92282 18.2875 7.26682 15.7677 5.91891L16.2394 5.03714C19.0715 6.55209 21 9.53946 21 12.978C21 17.9486 16.9706 21.978 12 21.978C7.02944 21.978 3 17.9486 3 12.978C3 8.00746 7.02944 3.97803 12 3.97803V4.97803Z" fill="black"/>
<path fill-rule="evenodd" clip-rule="evenodd" d="M11.627 4.58967L9.80338 3.14194L10.4251 2.35873L12.6404 4.11735C12.8567 4.28905 12.8928 4.60356 12.7211 4.81983L10.9625 7.03507L10.1793 6.41331L11.627 4.58967Z" fill="black"/>
</svg>
