<svg width="24" height="24" viewBox="0 0 24 24" fill="none" xmlns="http://www.w3.org/2000/svg">
<path fill-rule="evenodd" clip-rule="evenodd" d="M1.5 4C1.5 2.61929 2.61929 1.5 4 1.5H7V2.5H4C3.17157 2.5 2.5 3.17157 2.5 4V7H1.5V4ZM20 2.5H17V1.5H20C21.3807 1.5 22.5 2.61929 22.5 4V7H21.5V4C21.5 3.17157 20.8284 2.5 20 2.5ZM2.5 17V20C2.5 20.8284 3.17157 21.5 4 21.5H7V22.5H4C2.61929 22.5 1.5 21.3807 1.5 20V17H2.5ZM21.5 20V17H22.5V20C22.5 21.3807 21.3807 22.5 20 22.5H17V21.5H20C20.8284 21.5 21.5 20.8284 21.5 20Z" fill="black"/>
<path fill-rule="evenodd" clip-rule="evenodd" d="M12 5.5C8.41015 5.5 5.5 8.41015 5.5 12C5.5 15.5899 8.41015 18.5 12 18.5C15.5899 18.5 18.5 15.5899 18.5 12C18.5 8.41015 15.5899 5.5 12 5.5ZM4.5 12C4.5 7.85786 7.85786 4.5 12 4.5C16.1421 4.5 19.5 7.85786 19.5 12C19.5 16.1421 16.1421 19.5 12 19.5C7.85786 19.5 4.5 16.1421 4.5 12Z" fill="black"/>
<path fill-rule="evenodd" clip-rule="evenodd" d="M12 8C11.1716 8 10.5 8.67157 10.5 9.5C10.5 10.3284 11.1716 11 12 11C12.8284 11 13.5 10.3284 13.5 9.5C13.5 8.67157 12.8284 8 12 8ZM9.5 9.5C9.5 8.11929 10.6193 7 12 7C13.3807 7 14.5 8.11929 14.5 9.5C14.5 10.8807 13.3807 12 12 12C10.6193 12 9.5 10.8807 9.5 9.5Z" fill="black"/>
<path fill-rule="evenodd" clip-rule="evenodd" d="M12 15C10.3431 15 9 16.3431 9 18C9 18.2761 8.77614 18.5 8.5 18.5C8.22386 18.5 8 18.2761 8 18C8 15.7909 9.79086 14 12 14C14.2091 14 16 15.7909 16 18C16 18.2761 15.7761 18.5 15.5 18.5C15.2239 18.5 15 18.2761 15 18C15 16.3431 13.6569 15 12 15Z" fill="black"/>
</svg>
