<svg width="24" height="24" viewBox="0 0 24 24" fill="none" xmlns="http://www.w3.org/2000/svg">
<path fill-rule="evenodd" clip-rule="evenodd" d="M8.83869 5.0625C7.06813 5.0625 5.63281 6.49782 5.63281 8.26838C5.63281 10.0389 7.06813 11.4743 8.83869 11.4743V12.4743C6.51585 12.4743 4.63281 10.5912 4.63281 8.26838C4.63281 5.94554 6.51585 4.0625 8.83869 4.0625V5.0625Z" fill="black"/>
<path fill-rule="evenodd" clip-rule="evenodd" d="M8.83824 12.4741C5.4758 12.4741 2.75 15.1999 2.75 18.5624H1.75C1.75 14.6476 4.92351 11.4741 8.83824 11.4741V12.4741Z" fill="black"/>
<path fill-rule="evenodd" clip-rule="evenodd" d="M14.75 5.0625C12.8515 5.0625 11.3125 6.60152 11.3125 8.5C11.3125 10.3985 12.8515 11.9375 14.75 11.9375C16.6485 11.9375 18.1875 10.3985 18.1875 8.5C18.1875 6.60152 16.6485 5.0625 14.75 5.0625ZM10.3125 8.5C10.3125 6.04924 12.2992 4.0625 14.75 4.0625C17.2008 4.0625 19.1875 6.04924 19.1875 8.5C19.1875 10.9508 17.2008 12.9375 14.75 12.9375C12.2992 12.9375 10.3125 10.9508 10.3125 8.5Z" fill="black"/>
<path fill-rule="evenodd" clip-rule="evenodd" d="M14.75 12.9375C11.1601 12.9375 8.25 15.8476 8.25 19.4375H7.25C7.25 15.2954 10.6079 11.9375 14.75 11.9375C18.8921 11.9375 22.25 15.2954 22.25 19.4375H21.25C21.25 15.8476 18.3399 12.9375 14.75 12.9375Z" fill="black"/>
</svg>
