<svg width="42" height="46" viewBox="0 0 42 46" fill="none" xmlns="http://www.w3.org/2000/svg">
<path fill-rule="evenodd" clip-rule="evenodd" d="M27.3813 3.1372C27.723 2.76514 28.277 2.76514 28.6187 3.1372L33.8687 8.85356C34.2104 9.22562 34.2104 9.82885 33.8687 10.2009L12.8687 33.0663C12.7566 33.1884 12.6161 33.2751 12.4622 33.3169L5.46224 35.2224C5.16406 35.3036 4.84863 35.2084 4.6313 34.9718C4.41397 34.7351 4.3266 34.3917 4.40114 34.067L6.15114 26.4452C6.18961 26.2777 6.26916 26.1247 6.3813 26.0026L27.3813 3.1372ZM7.79011 27.1634L6.45259 32.9887L11.8027 31.5324L32.0126 9.52724L28 5.15824L7.79011 27.1634Z" fill="black"/>
<path fill-rule="evenodd" clip-rule="evenodd" d="M38.5 40.9672H3.5V39.0618H38.5V40.9672Z" fill="black"/>
</svg>
