<svg width="147" height="24" viewBox="0 0 147 24" fill="none" xmlns="http://www.w3.org/2000/svg">
<g clip-path="url(#clip0_1_3010)">
<mask id="mask0_1_3010" style="mask-type:luminance" maskUnits="userSpaceOnUse" x="31" y="0" width="19" height="23">
<path d="M36.0886 8.42318C36.6233 7.62408 37.3606 6.97484 38.2949 6.4754C39.2497 5.97596 40.3339 5.72616 41.5472 5.72616C42.9603 5.72616 44.2324 6.07586 45.3664 6.77507C46.521 7.47429 47.4259 8.47308 48.084 9.77162C48.7568 11.0496 49.0976 12.5362 49.0976 14.2373C49.0976 15.9324 48.7568 17.4396 48.084 18.7587C47.4259 20.0572 46.521 21.0678 45.3664 21.7847C44.2324 22.5044 42.9603 22.8628 41.5472 22.8628C40.3133 22.8628 39.2291 22.6249 38.2949 22.146C37.3812 21.6466 36.6439 21.0062 36.0886 20.2276V22.5926H31.911V0.42334H36.0886V8.42318ZM44.8288 14.2373C44.8288 13.2354 44.6202 12.3776 44.2031 11.6607C43.8064 10.9204 43.269 10.3621 42.5932 9.9802C41.9352 9.60122 41.2212 9.41328 40.4426 9.41328C39.6876 9.41328 38.9735 9.613 38.2949 10.0096C37.6397 10.3915 37.1022 10.9498 36.6851 11.6901C36.2855 12.4275 36.0886 13.2972 36.0886 14.2961C36.0886 15.295 36.2855 16.1615 36.6851 16.9019C37.1022 17.6422 37.6397 18.2092 38.2949 18.6088C38.9735 18.9907 39.6876 19.1787 40.4426 19.1787C41.2212 19.1787 41.9352 18.9789 42.5932 18.5794C43.269 18.1798 43.8064 17.61 44.2031 16.8726C44.6202 16.1323 44.8288 15.2538 44.8288 14.2373Z" fill="white"/>
</mask>
<g mask="url(#mask0_1_3010)">
<path d="M49.3236 0.197266H31.6846V23.0922H49.3236V0.197266Z" fill="white"/>
</g>
<mask id="mask1_1_3010" style="mask-type:luminance" maskUnits="userSpaceOnUse" x="51" y="5" width="17" height="18">
<path d="M67.5945 13.9672C67.5945 14.5636 67.5562 15.1041 67.474 15.5801H55.326C55.4259 16.7728 55.846 17.7101 56.5863 18.3858C57.3267 19.0615 58.2374 19.4023 59.3156 19.4023C60.8756 19.4023 61.9861 18.7354 62.6471 17.4016H67.1745C66.6956 18.9939 65.7758 20.3072 64.4156 21.3414C63.0554 22.3549 61.3867 22.8631 59.4066 22.8631C57.8054 22.8631 56.3658 22.5165 55.0878 21.8202C53.8275 21.1033 52.8374 20.0986 52.1147 18.803C51.4155 17.5103 51.066 16.0178 51.066 14.3256C51.066 12.6157 51.4155 11.1116 52.1147 9.81892C52.8168 8.52332 53.7954 7.53027 55.0557 6.83399C56.3161 6.13477 57.7672 5.78809 59.4066 5.78809C60.9872 5.78809 62.3943 6.12607 63.6341 6.80472C64.8974 7.48044 65.864 8.44395 66.5456 9.69842C67.2448 10.9323 67.5945 12.3573 67.5945 13.9672ZM63.2465 12.7744C63.2259 11.6992 62.835 10.8442 62.0771 10.2067C61.3162 9.54858 60.3848 9.22259 59.2861 9.22259C58.2461 9.22259 57.3646 9.53989 56.6449 10.1774C55.9456 10.7944 55.5168 11.661 55.3552 12.7744H63.2465Z" fill="white"/>
</mask>
<g mask="url(#mask1_1_3010)">
<path d="M67.8202 5.56201H50.8394V23.0923H67.8202V5.56201Z" fill="white"/>
</g>
<mask id="mask2_1_3010" style="mask-type:luminance" maskUnits="userSpaceOnUse" x="69" y="5" width="18" height="18">
<path d="M86.0943 13.9672C86.0943 14.5636 86.0531 15.1041 85.9738 15.5801H73.8258C73.9257 16.7728 74.3458 17.7101 75.0861 18.3858C75.8265 19.0615 76.7343 19.4023 77.8154 19.4023C79.3755 19.4023 80.486 18.7354 81.1441 17.4016H85.6743C85.1954 18.9939 84.2728 20.3072 82.9126 21.3414C81.5553 22.3549 79.8836 22.8631 77.9064 22.8631C76.3053 22.8631 74.8657 22.5165 73.5848 21.8202C72.3244 21.1033 71.3346 20.0986 70.6148 18.803C69.9156 17.5103 69.5659 16.0178 69.5659 14.3256C69.5659 12.6157 69.9156 11.1116 70.6148 9.81892C71.3169 8.52332 72.2952 7.53027 73.5555 6.83399C74.8159 6.13477 76.2641 5.78809 77.9064 5.78809C79.484 5.78809 80.8944 6.12607 82.1342 6.80472C83.3945 7.48044 84.3639 8.44395 85.0425 9.69842C85.7447 10.9323 86.0943 12.3573 86.0943 13.9672ZM81.7463 12.7744C81.7257 11.6992 81.3349 10.8442 80.574 10.2067C79.816 9.54858 78.8847 9.22259 77.7859 9.22259C76.7459 9.22259 75.8647 9.53989 75.145 10.1774C74.4457 10.7944 74.0166 11.661 73.855 12.7744H81.7463Z" fill="white"/>
</mask>
<g mask="url(#mask2_1_3010)">
<path d="M86.3209 5.56201H69.3395V23.0923H86.3209V5.56201Z" fill="white"/>
</g>
<mask id="mask3_1_3010" style="mask-type:luminance" maskUnits="userSpaceOnUse" x="89" y="0" width="18" height="23">
<path d="M93.3364 8.42318C93.874 7.62408 94.6084 6.97484 95.5427 6.4754C96.4975 5.97596 97.5845 5.72616 98.7979 5.72616C100.208 5.72616 101.483 6.07586 102.614 6.77507C103.769 7.47429 104.674 8.47308 105.332 9.77162C106.007 11.0496 106.345 12.5362 106.345 14.2373C106.345 15.9324 106.007 17.4396 105.332 18.7587C104.674 20.0572 103.769 21.0678 102.614 21.7847C101.483 22.5044 100.208 22.8628 98.7979 22.8628C97.564 22.8628 96.4769 22.6249 95.5427 22.146C94.629 21.6466 93.8946 21.0062 93.3364 20.2276V22.5926H89.1588V0.42334H93.3364V8.42318ZM102.077 14.2373C102.077 13.2354 101.868 12.3776 101.451 11.6607C101.054 10.9204 100.516 10.3621 99.8408 9.9802C99.1827 9.60122 98.4689 9.41328 97.6933 9.41328C96.9353 9.41328 96.2213 9.613 95.5427 10.0096C94.8875 10.3915 94.35 10.9498 93.9329 11.6901C93.5363 12.4275 93.3364 13.2972 93.3364 14.2961C93.3364 15.295 93.5363 16.1615 93.9329 16.9019C94.35 17.6422 94.8875 18.2092 95.5427 18.6088C96.2213 18.9907 96.9353 19.1787 97.6933 19.1787C98.4689 19.1787 99.1827 18.9789 99.8408 18.5794C100.516 18.1798 101.054 17.61 101.451 16.8726C101.868 16.1323 102.077 15.2538 102.077 14.2373Z" fill="white"/>
</mask>
<g mask="url(#mask3_1_3010)">
<path d="M106.571 0.197266H88.9321V23.0922H106.571V0.197266Z" fill="white"/>
</g>
<mask id="mask4_1_3010" style="mask-type:luminance" maskUnits="userSpaceOnUse" x="108" y="5" width="18" height="18">
<path d="M116.842 22.8631C115.244 22.8631 113.808 22.5165 112.53 21.8202C111.252 21.1033 110.241 20.0986 109.504 18.803C108.784 17.5103 108.425 16.0178 108.425 14.3256C108.425 12.6363 108.792 11.141 109.533 9.84833C110.291 8.55272 111.322 7.55967 112.618 6.8634C113.916 6.14655 115.365 5.78809 116.963 5.78809C118.561 5.78809 120.009 6.14655 121.308 6.8634C122.603 7.55967 123.623 8.55272 124.363 9.84833C125.121 11.141 125.5 12.6363 125.5 14.3256C125.5 16.0178 125.112 17.5103 124.331 18.803C123.573 20.0986 122.536 21.1033 121.217 21.8202C119.918 22.5165 118.461 22.8631 116.842 22.8631ZM116.842 19.2232C117.603 19.2232 118.311 19.0439 118.969 18.6855C119.648 18.3065 120.188 17.7483 120.588 17.0139C120.988 16.2765 121.187 15.3803 121.187 14.3256C121.187 12.7538 120.767 11.5493 119.927 10.712C119.11 9.85712 118.1 9.43117 116.904 9.43117C115.705 9.43117 114.695 9.85712 113.878 10.712C113.079 11.5493 112.679 12.7538 112.679 14.3256C112.679 15.8973 113.067 17.1137 113.846 17.9687C114.645 18.803 115.644 19.2232 116.842 19.2232Z" fill="white"/>
</mask>
<g mask="url(#mask4_1_3010)">
<path d="M125.726 5.56201H108.199V23.0923H125.726V5.56201Z" fill="white"/>
</g>
<mask id="mask5_1_3010" style="mask-type:luminance" maskUnits="userSpaceOnUse" x="128" y="0" width="5" height="23">
<path d="M132.833 0.42334H128.565V22.6455H132.833V0.42334Z" fill="white"/>
</mask>
<g mask="url(#mask5_1_3010)">
<path d="M133.062 0.197266H128.338V22.8719H133.062V0.197266Z" fill="white"/>
</g>
<mask id="mask6_1_3010" style="mask-type:luminance" maskUnits="userSpaceOnUse" x="135" y="1" width="11" height="22">
<path d="M141.911 9.50142V17.5248C141.911 18.0859 142.04 18.4943 142.302 18.7529C142.581 18.9908 143.042 19.1112 143.686 19.1112H145.642V22.6456H142.992C139.443 22.6456 137.666 20.9298 137.666 17.4954V9.50142H135.68V6.0583H137.666V1.95703H141.911V6.0583H145.642V9.50142H141.911Z" fill="white"/>
</mask>
<g mask="url(#mask6_1_3010)">
<path d="M145.868 1.73096H135.453V22.8719H145.868V1.73096Z" fill="white"/>
</g>
<path d="M8.82015 0.00439453H13.9689C18.844 0.00439453 22.7954 3.95583 22.7954 8.83015V13.9782C22.7954 18.8525 18.844 22.804 13.9689 22.804H8.82015C3.9475 22.804 -0.00463867 18.8525 -0.00463867 13.9782V8.83015C-0.00463867 3.95583 3.9475 0.00439453 8.82015 0.00439453Z" fill="white"/>
</g>
<defs>
<clipPath id="clip0_1_3010">
<rect width="146.013" height="23.2093" fill="white"/>
</clipPath>
</defs>
</svg>
