<svg width="22" height="22" viewBox="0 0 22 22" fill="none" xmlns="http://www.w3.org/2000/svg">
<path fill-rule="evenodd" clip-rule="evenodd" d="M11 1.5C5.75329 1.5 1.5 5.75329 1.5 11C1.5 16.2467 5.75329 20.5 11 20.5C16.2467 20.5 20.5 16.2467 20.5 11C20.5 5.75329 16.2467 1.5 11 1.5ZM0.5 11C0.5 5.20101 5.20101 0.5 11 0.5C16.799 0.5 21.5 5.20101 21.5 11C21.5 16.799 16.799 21.5 11 21.5C5.20101 21.5 0.5 16.799 0.5 11Z" fill="white"/>
<path fill-rule="evenodd" clip-rule="evenodd" d="M10.5 16V11H11.5V16H10.5Z" fill="white"/>
<path fill-rule="evenodd" clip-rule="evenodd" d="M11 6.5C9.89543 6.5 9 7.39543 9 8.5C9 9.60457 9.89543 10.5 11 10.5C12.1046 10.5 13 9.60457 13 8.5C13 7.39543 12.1046 6.5 11 6.5ZM8 8.5C8 6.84315 9.34315 5.5 11 5.5C12.6569 5.5 14 6.84315 14 8.5C14 10.1569 12.6569 11.5 11 11.5C9.34315 11.5 8 10.1569 8 8.5Z" fill="white"/>
</svg>
