<svg width="56" height="56" viewBox="0 0 56 56" fill="none" xmlns="http://www.w3.org/2000/svg">
<path fill-rule="evenodd" clip-rule="evenodd" d="M7.86745 40.4194C6.3618 41.451 5.83333 42.4062 5.83333 43.1671C5.83333 43.8083 6.20187 44.5847 7.24409 45.4471C8.2789 46.3034 9.84646 47.1268 11.8863 47.8407C15.9551 49.2648 21.6521 50.1671 28 50.1671C34.3479 50.1671 40.0449 49.2648 44.1138 47.8407C46.1535 47.1268 47.7211 46.3034 48.7559 45.4471C49.7981 44.5847 50.1667 43.8083 50.1667 43.1671C50.1667 42.4062 49.6382 41.451 48.1325 40.4194C46.6594 39.4101 44.4669 38.4881 41.7034 37.7615L42.2966 35.5049C45.2005 36.2683 47.6747 37.2773 49.4513 38.4945C51.1955 39.6895 52.5 41.2563 52.5 43.1671C52.5 44.7811 51.5627 46.1532 50.2435 47.2448C48.9168 48.3426 47.0673 49.2791 44.8846 50.043C40.5084 51.5747 34.5387 52.5005 28 52.5005C21.4613 52.5005 15.4916 51.5747 11.1154 50.043C8.93272 49.2791 7.08319 48.3426 5.75654 47.2448C4.4373 46.1532 3.5 44.7811 3.5 43.1671C3.5 41.2563 4.80449 39.6895 6.54866 38.4945C8.32534 37.2773 10.7995 36.2683 13.7034 35.5049L14.2966 37.7615C11.5331 38.4881 9.34057 39.4101 7.86745 40.4194Z" fill="black"/>
<path fill-rule="evenodd" clip-rule="evenodd" d="M27.9998 5.83333C20.2679 5.83333 13.9998 12.1013 13.9998 19.8333C13.9998 25.9031 17.5405 31.1649 21.2542 34.9957C23.0958 36.8954 24.9412 38.4027 26.327 39.435C27.0189 39.9504 27.5937 40.3455 27.9928 40.6101C27.9952 40.6117 27.9975 40.6132 27.9998 40.6148C28.0022 40.6132 28.0045 40.6117 28.0069 40.6101C28.4059 40.3455 28.9808 39.9504 29.6727 39.435C31.0585 38.4027 32.9039 36.8954 34.7455 34.9957C38.4592 31.1649 41.9998 25.9031 41.9998 19.8333C41.9998 12.1013 35.7318 5.83333 27.9998 5.83333ZM27.9998 42C27.3984 42.9997 27.3977 42.9992 27.3977 42.9992L27.3965 42.9986L27.3932 42.9966L27.3825 42.99L27.3448 42.967C27.3127 42.9472 27.2666 42.9186 27.2075 42.8814C27.0892 42.8068 26.9187 42.6976 26.7035 42.5549C26.2731 42.2695 25.663 41.85 24.9331 41.3063C23.4752 40.2202 21.5289 38.6314 19.5788 36.6198C15.7092 32.6281 11.6665 26.8066 11.6665 19.8333C11.6665 10.8127 18.9792 3.5 27.9998 3.5C37.0205 3.5 44.3332 10.8127 44.3332 19.8333C44.3332 26.8066 40.2905 32.6281 36.4208 36.6198C34.4708 38.6314 32.5245 40.2202 31.0666 41.3063C30.3366 41.85 29.7266 42.2695 29.2962 42.5549C29.081 42.6976 28.9105 42.8068 28.7922 42.8814C28.7331 42.9186 28.687 42.9472 28.6548 42.967L28.6172 42.99L28.6065 42.9966L28.6032 42.9986L28.602 42.9992C28.602 42.9992 28.6012 42.9997 27.9998 42ZM27.9998 42L28.602 42.9992C28.232 43.2218 27.7677 43.2218 27.3977 42.9992L27.9998 42Z" fill="black"/>
<path fill-rule="evenodd" clip-rule="evenodd" d="M28.0002 12.8333C24.7785 12.8333 22.1668 15.445 22.1668 18.6667C22.1668 21.8883 24.7785 24.5 28.0002 24.5C31.2218 24.5 33.8335 21.8883 33.8335 18.6667C33.8335 15.445 31.2218 12.8333 28.0002 12.8333ZM19.8335 18.6667C19.8335 14.1563 23.4898 10.5 28.0002 10.5C32.5105 10.5 36.1668 14.1563 36.1668 18.6667C36.1668 23.177 32.5105 26.8333 28.0002 26.8333C23.4898 26.8333 19.8335 23.177 19.8335 18.6667Z" fill="black"/>
</svg>
