<svg width="35" height="39" viewBox="0 0 35 39" fill="none" xmlns="http://www.w3.org/2000/svg">
<path fill-rule="evenodd" clip-rule="evenodd" d="M32.8125 21.125C32.8125 19.7788 31.8331 18.6875 30.625 18.6875H16.0417C14.8335 18.6875 13.8542 19.7788 13.8542 21.125V27.625C13.8542 28.9712 14.8335 30.0625 16.0417 30.0625H21.6319L27.2708 34.775C27.4918 34.9597 27.7874 34.9894 28.0344 34.8517C28.2815 34.7141 28.4375 34.4328 28.4375 34.125V30.0625H30.625C31.8331 30.0625 32.8125 28.9712 32.8125 27.625V21.125ZM30.625 20.3125C31.0277 20.3125 31.3542 20.6763 31.3542 21.125V27.625C31.3542 28.0737 31.0277 28.4375 30.625 28.4375H27.7083C27.3056 28.4375 26.9792 28.8013 26.9792 29.25V32.5L22.3125 28.6C22.1863 28.4945 22.0328 28.4375 21.875 28.4375H16.0417C15.639 28.4375 15.3125 28.0737 15.3125 27.625V21.125C15.3125 20.6763 15.639 20.3125 16.0417 20.3125H30.625Z" fill="black"/>
<path fill-rule="evenodd" clip-rule="evenodd" d="M2.1875 4.875C2.1875 3.52881 3.16688 2.4375 4.375 2.4375H18.9583C20.1665 2.4375 21.1458 3.52881 21.1458 4.875V11.375C21.1458 12.7212 20.1665 13.8125 18.9583 13.8125H13.3681L7.72917 18.525C7.50822 18.7097 7.2126 18.7394 6.96557 18.6017C6.71854 18.4641 6.5625 18.1828 6.5625 17.875V13.8125H4.375C3.16688 13.8125 2.1875 12.7212 2.1875 11.375V4.875ZM4.375 4.0625C3.97229 4.0625 3.64583 4.42627 3.64583 4.875V11.375C3.64583 11.8237 3.97229 12.1875 4.375 12.1875H7.29167C7.69437 12.1875 8.02083 12.5513 8.02083 13V16.25L12.6875 12.35C12.8137 12.2445 12.9672 12.1875 13.125 12.1875H18.9583C19.361 12.1875 19.6875 11.8237 19.6875 11.375V4.875C19.6875 4.42627 19.361 4.0625 18.9583 4.0625H4.375Z" fill="black"/>
</svg>
