<svg width="35" height="35" viewBox="0 0 35 35" fill="none" xmlns="http://www.w3.org/2000/svg">
<path fill-rule="evenodd" clip-rule="evenodd" d="M2.1875 26.25C2.1875 25.0419 3.16688 24.0625 4.375 24.0625H30.625C31.8331 24.0625 32.8125 25.0419 32.8125 26.25V30.625C32.8125 31.8331 31.8331 32.8125 30.625 32.8125H4.375C3.16688 32.8125 2.1875 31.8331 2.1875 30.625V26.25ZM4.375 25.5208C3.97229 25.5208 3.64583 25.8473 3.64583 26.25V30.625C3.64583 31.0277 3.97229 31.3542 4.375 31.3542H30.625C31.0277 31.3542 31.3542 31.0277 31.3542 30.625V26.25C31.3542 25.8473 31.0277 25.5208 30.625 25.5208H4.375Z" fill="black"/>
<path fill-rule="evenodd" clip-rule="evenodd" d="M25.5205 28.4376V24.7917H26.9788V28.4376H25.5205Z" fill="black"/>
<path fill-rule="evenodd" clip-rule="evenodd" d="M16.7705 28.4376V24.7917H18.2288V28.4376H16.7705Z" fill="black"/>
<path fill-rule="evenodd" clip-rule="evenodd" d="M8.02051 28.4376V24.7917H9.47884V28.4376H8.02051Z" fill="black"/>
<path fill-rule="evenodd" clip-rule="evenodd" d="M21.1455 26.9792V24.7917H22.6038V26.9792H21.1455Z" fill="black"/>
<path fill-rule="evenodd" clip-rule="evenodd" d="M12.3955 26.9792V24.7917H13.8538V26.9792H12.3955Z" fill="black"/>
<path fill-rule="evenodd" clip-rule="evenodd" d="M8.02051 4.375C8.02051 3.16688 8.99989 2.1875 10.208 2.1875H24.7913C25.9995 2.1875 26.9788 3.16688 26.9788 4.375V18.9583C26.9788 20.1665 25.9995 21.1458 24.7913 21.1458H10.208C8.99988 21.1458 8.02051 20.1665 8.02051 18.9583V4.375ZM10.208 3.64583C9.8053 3.64583 9.47884 3.97229 9.47884 4.375V18.9583C9.47884 19.361 9.8053 19.6875 10.208 19.6875H24.7913C25.194 19.6875 25.5205 19.361 25.5205 18.9583V4.375C25.5205 3.97229 25.194 3.64583 24.7913 3.64583H10.208Z" fill="black"/>
<path fill-rule="evenodd" clip-rule="evenodd" d="M13.125 2.91667C13.125 2.51396 13.4515 2.1875 13.8542 2.1875H21.1458C21.5485 2.1875 21.875 2.51396 21.875 2.91667V10.2083C21.875 10.461 21.7441 10.6957 21.5292 10.8286C21.3142 10.9615 21.0458 10.9735 20.8197 10.8605L17.5 9.20065L14.1803 10.8605C13.9542 10.9735 13.6858 10.9615 13.4708 10.8286C13.2559 10.6957 13.125 10.461 13.125 10.2083V2.91667ZM14.5833 3.64583V9.02852L17.1739 7.73323C17.3792 7.63059 17.6208 7.63059 17.8261 7.73323L20.4167 9.02852V3.64583H14.5833Z" fill="black"/>
</svg>
