<svg width="35" height="35" viewBox="0 0 35 35" fill="none" xmlns="http://www.w3.org/2000/svg">
<path fill-rule="evenodd" clip-rule="evenodd" d="M12.3955 23.3334C12.3955 22.9307 12.722 22.6042 13.1247 22.6042H21.8747C22.2774 22.6042 22.6038 22.9307 22.6038 23.3334V32.0834C22.6038 32.4861 22.2774 32.8126 21.8747 32.8126H13.1247C12.722 32.8126 12.3955 32.4861 12.3955 32.0834V23.3334ZM13.8538 24.0626V31.3542H21.1455V24.0626H13.8538Z" fill="black"/>
<path fill-rule="evenodd" clip-rule="evenodd" d="M17.4997 3.64583C10.5705 3.64583 5.10384 8.62108 5.10384 14.5833H3.64551C3.64551 7.65894 9.93134 2.1875 17.4997 2.1875C25.068 2.1875 31.3538 7.65894 31.3538 14.5833H29.8955C29.8955 8.62108 24.4288 3.64583 17.4997 3.64583Z" fill="black"/>
<path fill-rule="evenodd" clip-rule="evenodd" d="M5.13426 14.3117C5.22487 13.9059 5.52084 13.4874 6.06055 13.1276C6.71681 12.6901 7.66543 12.3958 8.74967 12.3958C9.83392 12.3958 10.7825 12.6901 11.4388 13.1276C12.1002 13.5685 12.3955 14.0976 12.3955 14.5833H13.8538C13.8538 13.4583 13.1698 12.529 12.2477 11.9142C11.3206 11.2961 10.0817 10.9375 8.74967 10.9375C7.41767 10.9375 6.17879 11.2961 5.25161 11.9142C4.32953 12.529 3.64551 13.4583 3.64551 14.5833C3.64551 14.7767 3.72233 14.9622 3.85908 15.0989L12.6091 23.8489L13.6403 22.8177L5.13426 14.3117Z" fill="black"/>
<path fill-rule="evenodd" clip-rule="evenodd" d="M13.8584 14.4786C13.8979 14.0225 14.1964 13.5371 14.8106 13.1276C15.4668 12.6901 16.4154 12.3958 17.4997 12.3958C18.5839 12.3958 19.5325 12.6901 20.1888 13.1276C20.8502 13.5685 21.1455 14.0976 21.1455 14.5833H22.6038C22.6038 13.4583 21.9198 12.529 20.9977 11.9142C20.0706 11.2961 18.8317 10.9375 17.4997 10.9375C16.1677 10.9375 14.9288 11.2961 14.0016 11.9142C13.0795 12.529 12.3955 13.4583 12.3955 14.5833C12.3955 14.6617 12.4081 14.7396 12.4329 14.8139L15.3496 23.5639L16.7331 23.1028L13.8584 14.4786Z" fill="black"/>
<path fill-rule="evenodd" clip-rule="evenodd" d="M23.5609 13.1276C22.8995 13.5685 22.6042 14.0976 22.6042 14.5833C22.6042 14.6617 22.5915 14.7396 22.5668 14.8139L19.6501 23.5639L18.2666 23.1028L21.1488 14.4562C21.1981 13.3883 21.8648 12.5057 22.752 11.9142C23.6791 11.2961 24.918 10.9375 26.25 10.9375C27.582 10.9375 28.8209 11.2961 29.7481 11.9142C30.6702 12.529 31.3542 13.4583 31.3542 14.5833C31.3542 14.7767 31.2774 14.9622 31.1406 15.0989L22.3906 23.8489L21.3594 22.8177L29.8654 14.3117C29.7748 13.9059 29.4789 13.4874 28.9391 13.1276C28.2829 12.6901 27.3343 12.3958 26.25 12.3958C25.1658 12.3958 24.2172 12.6901 23.5609 13.1276Z" fill="black"/>
<path fill-rule="evenodd" clip-rule="evenodd" d="M16.7705 26.2499V23.3333H18.2288V26.2499H16.7705Z" fill="black"/>
</svg>
