<svg width="43" height="47" viewBox="0 0 43 47" fill="none" xmlns="http://www.w3.org/2000/svg">
<path fill-rule="evenodd" clip-rule="evenodd" d="M10.5439 16.875C11.2739 12.7416 14.5956 9.75409 18.4613 9.75409H24.5384C28.4041 9.75409 31.7258 12.7416 32.4558 16.8749L35.8171 35.906C35.8675 36.1917 35.7982 36.487 35.628 36.7113C35.4578 36.9357 35.2046 37.0656 34.9373 37.0656H8.06234C7.79512 37.0656 7.54185 36.9357 7.37167 36.7113C7.20149 36.487 7.13217 36.1917 7.18263 35.906L10.5439 16.875ZM18.4613 11.7049C15.4546 11.7049 12.8711 14.0285 12.3033 17.2434L9.14687 35.1147H33.8528L30.6964 17.2434C30.1286 14.0285 27.5451 11.7049 24.5384 11.7049H18.4613Z" fill="black"/>
<path fill-rule="evenodd" clip-rule="evenodd" d="M39.4166 37.0656H3.58325V35.1147H39.4166V37.0656Z" fill="black"/>
<path fill-rule="evenodd" clip-rule="evenodd" d="M15.229 36.0902C15.229 35.5515 15.6301 35.1147 16.1248 35.1147H26.8748C27.3696 35.1147 27.7707 35.5515 27.7707 36.0902V38.041C27.7707 40.7345 25.7653 42.918 23.2915 42.918H19.7082C17.2344 42.918 15.229 40.7345 15.229 38.041V36.0902ZM17.0207 37.0656V38.041C17.0207 39.6571 18.2239 40.9672 19.7082 40.9672H23.2915C24.7758 40.9672 25.979 39.6571 25.979 38.041V37.0656H17.0207Z" fill="black"/>
<path fill-rule="evenodd" clip-rule="evenodd" d="M17.0208 10.7295C17.0208 11.2682 17.4218 11.7049 17.9166 11.7049H25.0833C25.578 11.7049 25.9791 11.2682 25.9791 10.7295V8.77867C25.9791 6.08515 23.9737 3.90162 21.4999 3.90162C19.0261 3.90162 17.0208 6.08515 17.0208 8.77867V10.7295ZM18.8124 9.75408V8.77867C18.8124 7.16255 20.0157 5.85244 21.4999 5.85244C22.9842 5.85244 24.1874 7.16255 24.1874 8.77867V9.75408H18.8124Z" fill="black"/>
</svg>
