<svg width="43" height="47" viewBox="0 0 43 47" fill="none" xmlns="http://www.w3.org/2000/svg">
<path fill-rule="evenodd" clip-rule="evenodd" d="M4.47925 7.80329C4.47925 5.10977 6.48464 2.92624 8.95842 2.92624H34.0417C36.5155 2.92624 38.5209 5.10977 38.5209 7.80329V9.75411C38.5209 12.4476 36.5155 14.6312 34.0417 14.6312H8.95842C6.48464 14.6312 4.47925 12.4476 4.47925 9.75411V7.80329ZM8.95842 4.87706C7.47415 4.87706 6.27091 6.18718 6.27091 7.80329V9.75411C6.27091 11.3702 7.47415 12.6803 8.95842 12.6803H34.0417C35.526 12.6803 36.7292 11.3702 36.7292 9.75411V7.80329C36.7292 6.18718 35.526 4.87706 34.0417 4.87706H8.95842Z" fill="black"/>
<path fill-rule="evenodd" clip-rule="evenodd" d="M4.47925 17.5574C4.47925 14.8639 6.48464 12.6803 8.95842 12.6803H34.0417C36.5155 12.6803 38.5209 14.8639 38.5209 17.5574V19.5082C38.5209 22.2017 36.5155 24.3852 34.0417 24.3852H8.95842C6.48464 24.3852 4.47925 22.2017 4.47925 19.5082V17.5574ZM8.95842 14.6311C7.47415 14.6311 6.27091 15.9413 6.27091 17.5574V19.5082C6.27091 21.1243 7.47415 22.4344 8.95842 22.4344H34.0417C35.526 22.4344 36.7292 21.1243 36.7292 19.5082V17.5574C36.7292 15.9413 35.526 14.6311 34.0417 14.6311H8.95842Z" fill="black"/>
<path fill-rule="evenodd" clip-rule="evenodd" d="M20.6042 9.7541H9.85425V7.80328H20.6042V9.7541Z" fill="black"/>
<path fill-rule="evenodd" clip-rule="evenodd" d="M20.6042 19.5082H9.85425V17.5574H20.6042V19.5082Z" fill="black"/>
<path fill-rule="evenodd" clip-rule="evenodd" d="M32.25 9.7541H29.5625V7.80328H32.25V9.7541Z" fill="black"/>
<path fill-rule="evenodd" clip-rule="evenodd" d="M32.25 19.5082H29.5625V17.5574H32.25V19.5082Z" fill="black"/>
<path fill-rule="evenodd" clip-rule="evenodd" d="M20.6042 37.0656V23.4099H22.3959V37.0656H20.6042Z" fill="black"/>
<path fill-rule="evenodd" clip-rule="evenodd" d="M35.8333 40.9672H24.1875V39.0164H35.8333V40.9672Z" fill="black"/>
<path fill-rule="evenodd" clip-rule="evenodd" d="M18.8126 40.9672H7.16675V39.0164H18.8126V40.9672Z" fill="black"/>
<path fill-rule="evenodd" clip-rule="evenodd" d="M21.5001 38.041C20.5106 38.041 19.7084 38.9144 19.7084 39.9918C19.7084 41.0692 20.5106 41.9426 21.5001 41.9426C22.4896 41.9426 23.2917 41.0692 23.2917 39.9918C23.2917 38.9144 22.4896 38.041 21.5001 38.041ZM17.9167 39.9918C17.9167 37.837 19.5211 36.0902 21.5001 36.0902C23.4791 36.0902 25.0834 37.837 25.0834 39.9918C25.0834 42.1466 23.4791 43.8935 21.5001 43.8935C19.5211 43.8935 17.9167 42.1466 17.9167 39.9918Z" fill="black"/>
</svg>
