<svg width="43" height="47" viewBox="0 0 43 47" fill="none" xmlns="http://www.w3.org/2000/svg">
<path fill-rule="evenodd" clip-rule="evenodd" d="M21.5 4.87703C19.521 4.87703 17.9167 6.62385 17.9167 8.77867C17.9167 10.9335 19.521 12.6803 21.5 12.6803C23.479 12.6803 25.0833 10.9335 25.0833 8.77867C25.0833 6.62385 23.479 4.87703 21.5 4.87703ZM16.125 8.77867C16.125 5.54644 18.5315 2.92621 21.5 2.92621C24.4685 2.92621 26.875 5.54644 26.875 8.77867C26.875 12.0109 24.4685 14.6311 21.5 14.6311C18.5315 14.6311 16.125 12.0109 16.125 8.77867Z" fill="black"/>
<path fill-rule="evenodd" clip-rule="evenodd" d="M10.75 26.3361C8.77098 26.3361 7.16667 28.0829 7.16667 30.2377C7.16667 32.3925 8.77098 34.1394 10.75 34.1394C12.729 34.1394 14.3333 32.3925 14.3333 30.2377C14.3333 28.0829 12.729 26.3361 10.75 26.3361ZM5.375 30.2377C5.375 27.0055 7.78147 24.3853 10.75 24.3853C13.7185 24.3853 16.125 27.0055 16.125 30.2377C16.125 33.4699 13.7185 36.0902 10.75 36.0902C7.78147 36.0902 5.375 33.4699 5.375 30.2377Z" fill="black"/>
<path fill-rule="evenodd" clip-rule="evenodd" d="M32.25 26.3361C30.271 26.3361 28.6667 28.0829 28.6667 30.2377C28.6667 32.3925 30.271 34.1394 32.25 34.1394C34.229 34.1394 35.8333 32.3925 35.8333 30.2377C35.8333 28.0829 34.229 26.3361 32.25 26.3361ZM26.875 30.2377C26.875 27.0055 29.2815 24.3853 32.25 24.3853C35.2185 24.3853 37.625 27.0055 37.625 30.2377C37.625 33.4699 35.2185 36.0902 32.25 36.0902C29.2815 36.0902 26.875 33.4699 26.875 30.2377Z" fill="black"/>
<path fill-rule="evenodd" clip-rule="evenodd" d="M2.6875 40.9672C2.6875 37.1963 5.49505 34.1393 8.95833 34.1393H12.5417C16.005 34.1393 18.8125 37.1963 18.8125 40.9672C18.8125 42.5833 17.6093 43.8934 16.125 43.8934H5.375C3.89073 43.8934 2.6875 42.5833 2.6875 40.9672ZM8.95833 36.0902C6.48456 36.0902 4.47917 38.2737 4.47917 40.9672C4.47917 41.5059 4.88024 41.9426 5.375 41.9426H16.125C16.6198 41.9426 17.0208 41.5059 17.0208 40.9672C17.0208 38.2737 15.0154 36.0902 12.5417 36.0902H8.95833Z" fill="black"/>
<path fill-rule="evenodd" clip-rule="evenodd" d="M13.4375 19.5082C13.4375 15.7372 16.245 12.6803 19.7083 12.6803H23.2917C26.755 12.6803 29.5625 15.7372 29.5625 19.5082C29.5625 21.1243 28.3593 22.4344 26.875 22.4344H16.125C14.6407 22.4344 13.4375 21.1243 13.4375 19.5082ZM19.7083 14.6311C17.2346 14.6311 15.2292 16.8146 15.2292 19.5082C15.2292 20.0469 15.6302 20.4836 16.125 20.4836H26.875C27.3698 20.4836 27.7708 20.0469 27.7708 19.5082C27.7708 16.8146 25.7654 14.6311 23.2917 14.6311H19.7083Z" fill="black"/>
<path fill-rule="evenodd" clip-rule="evenodd" d="M24.1875 40.9672C24.1875 37.1963 26.995 34.1393 30.4583 34.1393H34.0417C37.505 34.1393 40.3125 37.1963 40.3125 40.9672C40.3125 42.5833 39.1093 43.8934 37.625 43.8934H26.875C25.3907 43.8934 24.1875 42.5833 24.1875 40.9672ZM30.4583 36.0902C27.9846 36.0902 25.9792 38.2737 25.9792 40.9672C25.9792 41.5059 26.3802 41.9426 26.875 41.9426H37.625C38.1198 41.9426 38.5208 41.5059 38.5208 40.9672C38.5208 38.2737 36.5154 36.0902 34.0417 36.0902H30.4583Z" fill="black"/>
</svg>
